<svg   id="chart"   width="1000"   height="500"   viewBox="0 0 1000 500"   xmlns="http://www.w3.org/2000/svg" >      <path d="M 0,496.1083293768236 C 12.6,493.60705049195127 37.800000000000004,490.284183714434 63,483.601934952462 C 88.2,476.91968619049 100.80000000000001,477.2964497859065 126,462.69708556696355 C 151.2,448.0977213480207 163.8,421.25829444913364 189,410.60511385774754 C 214.2,399.95193326636144 226.8,410.08896832388155 252,409.4311826100329 C 277.2,408.7733968961843 289.8,408.0244864968234 315,407.3161852885043 C 340.2,406.6078840801852 352.8,412.95219736206985 378,405.8896765684374 C 403.2,398.8271557748049 415.8,388.8965612602728 441,372.0035813203418 C 466.2,355.11060138041086 478.8,349.97574641850014 504,321.4247768687826 C 529.2,292.87380731906507 541.8,241.14107161601544 567,229.24873357175426 C 592.2,217.35639552749308 604.8,254.69716323655177 630,261.96308664747664 C 655.2,269.2290100584015 667.8,262.80701780896544 693,265.57835062637866 C 718.2,268.3496834437919 730.8,282.4443125033676 756,275.8197507345429 C 781.2,269.19518896571816 793.8,268.44989831090805 819,232.45554178225518 C 844.2,196.4611852536023 856.8,102.67386792067786 882,95.84796809127846 C 907.2,89.02206826187907 919.8,182.6369887831965 945,198.3260426352582 C 970.2,214.0150964873199 995.4,179.09979840832128 1008,174.29323735158704,L 1000 500,L 0 500Z" fill="#d512121a" />   <path d="M 0,496.1083293768236 C 12.6,493.60705049195127 37.800000000000004,490.284183714434 63,483.601934952462 C 88.2,476.91968619049 100.80000000000001,477.2964497859065 126,462.69708556696355 C 151.2,448.0977213480207 163.8,421.25829444913364 189,410.60511385774754 C 214.2,399.95193326636144 226.8,410.08896832388155 252,409.4311826100329 C 277.2,408.7733968961843 289.8,408.0244864968234 315,407.3161852885043 C 340.2,406.6078840801852 352.8,412.95219736206985 378,405.8896765684374 C 403.2,398.8271557748049 415.8,388.8965612602728 441,372.0035813203418 C 466.2,355.11060138041086 478.8,349.97574641850014 504,321.4247768687826 C 529.2,292.87380731906507 541.8,241.14107161601544 567,229.24873357175426 C 592.2,217.35639552749308 604.8,254.69716323655177 630,261.96308664747664 C 655.2,269.2290100584015 667.8,262.80701780896544 693,265.57835062637866 C 718.2,268.3496834437919 730.8,282.4443125033676 756,275.8197507345429 C 781.2,269.19518896571816 793.8,268.44989831090805 819,232.45554178225518 C 844.2,196.4611852536023 856.8,102.67386792067786 882,95.84796809127846 C 907.2,89.02206826187907 919.8,182.6369887831965 945,198.3260426352582 C 970.2,214.0150964873199 995.4,179.09979840832128 1008,174.29323735158704" fill="none" stroke="#d51212" stroke-width="4px" />   <g>   		<circle cx="0" cy="496.1083293768236" r="8" fill="#d51212" />,		<circle cx="63" cy="483.601934952462" r="8" fill="#d51212" />,		<circle cx="126" cy="462.69708556696355" r="8" fill="#d51212" />,		<circle cx="189" cy="410.60511385774754" r="8" fill="#d51212" />,		<circle cx="252" cy="409.4311826100329" r="8" fill="#d51212" />,		<circle cx="315" cy="407.3161852885043" r="8" fill="#d51212" />,		<circle cx="378" cy="405.8896765684374" r="8" fill="#d51212" />,		<circle cx="441" cy="372.0035813203418" r="8" fill="#d51212" />,		<circle cx="504" cy="321.4247768687826" r="8" fill="#d51212" />,		<circle cx="567" cy="229.24873357175426" r="8" fill="#d51212" />,		<circle cx="630" cy="261.96308664747664" r="8" fill="#d51212" />,		<circle cx="693" cy="265.57835062637866" r="8" fill="#d51212" />,		<circle cx="756" cy="275.8197507345429" r="8" fill="#d51212" />,		<circle cx="819" cy="232.45554178225518" r="8" fill="#d51212" />,		<circle cx="882" cy="95.84796809127846" r="8" fill="#d51212" />,		<circle cx="945" cy="198.3260426352582" r="8" fill="#d51212" />,		<circle cx="1008" cy="174.29323735158704" r="8" fill="#d51212" />   </g> </svg>