<svg   id="chart"   width="1000"   height="500"   viewBox="0 0 1000 500"   xmlns="http://www.w3.org/2000/svg" >      <path d="M 0,13.94192877581204 C 12.6,15.651459091688501 37.8,13.479659293250636 63,22.489580355194345 C 88.2,31.499501417138056 100.8,53.247745341078755 126,58.99153408553059 C 151.2,64.73532282998242 163.8,43.996248191279676 189,51.208524077453525 C 214.2,58.420799963627374 226.79999999999998,80.39967525545116 252,95.05291351639983 C 277.2,109.7061517773485 289.8,119.39461962624931 315,124.47471538219685 C 340.2,129.5548111381444 352.8,104.95998277803264 378,120.45339229613754 C 403.2,135.94680181424243 415.8,195.85879503489775 441,201.94176297272134 C 466.2,208.02473091054492 478.8,135.72322150481386 504,150.86823198525545 C 529.2,166.01324246569703 541.8,264.38980966788654 567,277.6668153749293 C 592.2,290.94382108197203 604.8,209.11299216136624 630,217.25326052046918 C 655.2,225.39352887957213 667.8,321.10662801698044 693,318.36815717044396 C 718.2,315.6296863239075 730.8,225.1708304549943 756,203.56090628778685 C 781.2,181.9509821205794 793.8,166.42193861656813 819,210.3185363344067 C 844.2,254.21513405224525 856.8,372.2852237711682 882,423.0438948769796 C 907.2,473.802565982791 919.8,475.0054983365887 945,464.11189186346377 C 970.2,453.21828539033885 995.4,387.6830683817769 1008,368.5758625113551,L 1000 500,L 0 500Z" fill="#d512121a" />   <path d="M 0,13.94192877581204 C 12.6,15.651459091688501 37.8,13.479659293250636 63,22.489580355194345 C 88.2,31.499501417138056 100.8,53.247745341078755 126,58.99153408553059 C 151.2,64.73532282998242 163.8,43.996248191279676 189,51.208524077453525 C 214.2,58.420799963627374 226.79999999999998,80.39967525545116 252,95.05291351639983 C 277.2,109.7061517773485 289.8,119.39461962624931 315,124.47471538219685 C 340.2,129.5548111381444 352.8,104.95998277803264 378,120.45339229613754 C 403.2,135.94680181424243 415.8,195.85879503489775 441,201.94176297272134 C 466.2,208.02473091054492 478.8,135.72322150481386 504,150.86823198525545 C 529.2,166.01324246569703 541.8,264.38980966788654 567,277.6668153749293 C 592.2,290.94382108197203 604.8,209.11299216136624 630,217.25326052046918 C 655.2,225.39352887957213 667.8,321.10662801698044 693,318.36815717044396 C 718.2,315.6296863239075 730.8,225.1708304549943 756,203.56090628778685 C 781.2,181.9509821205794 793.8,166.42193861656813 819,210.3185363344067 C 844.2,254.21513405224525 856.8,372.2852237711682 882,423.0438948769796 C 907.2,473.802565982791 919.8,475.0054983365887 945,464.11189186346377 C 970.2,453.21828539033885 995.4,387.6830683817769 1008,368.5758625113551" fill="none" stroke="#d51212" stroke-width="4px" />   <g>   		<circle cx="0" cy="13.94192877581204" r="8" fill="#d51212" />,		<circle cx="63" cy="22.489580355194345" r="8" fill="#d51212" />,		<circle cx="126" cy="58.99153408553059" r="8" fill="#d51212" />,		<circle cx="189" cy="51.208524077453525" r="8" fill="#d51212" />,		<circle cx="252" cy="95.05291351639983" r="8" fill="#d51212" />,		<circle cx="315" cy="124.47471538219685" r="8" fill="#d51212" />,		<circle cx="378" cy="120.45339229613754" r="8" fill="#d51212" />,		<circle cx="441" cy="201.94176297272134" r="8" fill="#d51212" />,		<circle cx="504" cy="150.86823198525545" r="8" fill="#d51212" />,		<circle cx="567" cy="277.6668153749293" r="8" fill="#d51212" />,		<circle cx="630" cy="217.25326052046918" r="8" fill="#d51212" />,		<circle cx="693" cy="318.36815717044396" r="8" fill="#d51212" />,		<circle cx="756" cy="203.56090628778685" r="8" fill="#d51212" />,		<circle cx="819" cy="210.3185363344067" r="8" fill="#d51212" />,		<circle cx="882" cy="423.0438948769796" r="8" fill="#d51212" />,		<circle cx="945" cy="464.11189186346377" r="8" fill="#d51212" />,		<circle cx="1008" cy="368.5758625113551" r="8" fill="#d51212" />   </g> </svg>