<svg   id="chart"   width="1000"   height="500"   viewBox="0 0 1000 500"   xmlns="http://www.w3.org/2000/svg" >      <path d="M 0,205.2031642121854 C 12.600000000000003,181.1660205595672 37.8,53.48722454484648 63,85.01744594909422 C 88.2,116.54766735334198 100.8,355.6671084684131 126,362.85427123342413 C 151.2,370.04143399843514 163.8,149.52238728988456 189,120.95325977414927 C 214.2,92.38413225841398 226.8,198.14719378598699 252,220.00863365474765 C 277.2,241.87007352350832 289.8,204.98010344074373 315,230.26045911795268 C 340.2,255.54081479516162 352.8,352.96718433795644 378,346.4104120407923 C 403.2,339.8536397436282 415.8,223.7289871831023 441,197.47659763213204 C 466.2,171.22420808116178 478.79999999999995,176.34514186738454 504,215.14846428594103 C 529.2,253.95178670449752 541.8,380.50184220094474 567,391.49320972491455 C 592.2,402.48457724888436 604.8,292.3733597519748 630,270.10530190579004 C 655.2,247.83724405960524 667.8,276.521199192429 693,280.1529204939906 C 718.2,283.7846417955523 730.8,272.0255197817485 756,288.2639084135984 C 781.2,304.5022970454483 793.8,394.5702000251747 819,361.34486365324017 C 844.2,328.11952728130564 856.8,181.40843486649203 882,122.13722655392587 C 907.2,62.86601824135971 919.8,50.72230009135323 945,64.98882209040937 C 970.2,79.25534408946551 995.4,167.7736336574471 1008,193.46983654920655,L 1000 500,L 0 500Z" fill="#d512121a" />   <path d="M 0,205.2031642121854 C 12.600000000000003,181.1660205595672 37.8,53.48722454484648 63,85.01744594909422 C 88.2,116.54766735334198 100.8,355.6671084684131 126,362.85427123342413 C 151.2,370.04143399843514 163.8,149.52238728988456 189,120.95325977414927 C 214.2,92.38413225841398 226.8,198.14719378598699 252,220.00863365474765 C 277.2,241.87007352350832 289.8,204.98010344074373 315,230.26045911795268 C 340.2,255.54081479516162 352.8,352.96718433795644 378,346.4104120407923 C 403.2,339.8536397436282 415.8,223.7289871831023 441,197.47659763213204 C 466.2,171.22420808116178 478.79999999999995,176.34514186738454 504,215.14846428594103 C 529.2,253.95178670449752 541.8,380.50184220094474 567,391.49320972491455 C 592.2,402.48457724888436 604.8,292.3733597519748 630,270.10530190579004 C 655.2,247.83724405960524 667.8,276.521199192429 693,280.1529204939906 C 718.2,283.7846417955523 730.8,272.0255197817485 756,288.2639084135984 C 781.2,304.5022970454483 793.8,394.5702000251747 819,361.34486365324017 C 844.2,328.11952728130564 856.8,181.40843486649203 882,122.13722655392587 C 907.2,62.86601824135971 919.8,50.72230009135323 945,64.98882209040937 C 970.2,79.25534408946551 995.4,167.7736336574471 1008,193.46983654920655" fill="none" stroke="#d51212" stroke-width="4px" />   <g>   		<circle cx="0" cy="205.2031642121854" r="8" fill="#d51212" />,		<circle cx="63" cy="85.01744594909422" r="8" fill="#d51212" />,		<circle cx="126" cy="362.85427123342413" r="8" fill="#d51212" />,		<circle cx="189" cy="120.95325977414927" r="8" fill="#d51212" />,		<circle cx="252" cy="220.00863365474765" r="8" fill="#d51212" />,		<circle cx="315" cy="230.26045911795268" r="8" fill="#d51212" />,		<circle cx="378" cy="346.4104120407923" r="8" fill="#d51212" />,		<circle cx="441" cy="197.47659763213204" r="8" fill="#d51212" />,		<circle cx="504" cy="215.14846428594103" r="8" fill="#d51212" />,		<circle cx="567" cy="391.49320972491455" r="8" fill="#d51212" />,		<circle cx="630" cy="270.10530190579004" r="8" fill="#d51212" />,		<circle cx="693" cy="280.1529204939906" r="8" fill="#d51212" />,		<circle cx="756" cy="288.2639084135984" r="8" fill="#d51212" />,		<circle cx="819" cy="361.34486365324017" r="8" fill="#d51212" />,		<circle cx="882" cy="122.13722655392587" r="8" fill="#d51212" />,		<circle cx="945" cy="64.98882209040937" r="8" fill="#d51212" />,		<circle cx="1008" cy="193.46983654920655" r="8" fill="#d51212" />   </g> </svg>