<svg   id="chart"   width="1000"   height="500"   viewBox="0 0 1000 500"   xmlns="http://www.w3.org/2000/svg" >      <path d="M 0,204.91611448469138 C 12.600000000000003,176.4329906705326 37.8,37.17059941712886 63,62.500495413897454 C 88.2,87.83039141066604 100.79999999999997,282.31503083736516 126,331.5655944685343 C 151.2,380.8161580997035 163.8,319.2252644397381 189,308.75331356974334 C 214.2,298.28136269974857 226.8,321.9047917019043 252,279.2058401185605 C 277.2,236.50688853521675 289.8,109.45396469063911 315,95.25855565302453 C 340.2,81.06314661540995 352.79999999999995,150.95200509825628 378,208.22879493048765 C 403.2,265.505584762719 415.8,386.18634273621893 441,381.6425048141815 C 466.2,377.0986668921441 478.8,224.09160209770306 504,185.50960532030058 C 529.2,146.9276085428981 541.8,175.69056106941449 567,188.73252092716905 C 592.2,201.7744807849236 604.8,261.47462548264775 630,250.7194046090734 C 655.2,239.96418373549906 667.8,137.89126707835976 693,134.95641655929734 C 718.2,132.02156604023492 730.8000000000001,194.16307199134184 756,236.04515201376125 C 781.2,277.92723203618067 793.8,321.4796575440558 819,344.3668166713944 C 844.2,367.25397579873305 856.8,389.4927143240536 882,350.4809476504545 C 907.2,311.46918097685534 919.8,200.34219392808185 945,149.30798330339866 C 970.2,98.27377267871547 995.4,106.10951228231056 1008,95.30989452703854,L 1000 500,L 0 500Z" fill="#d512121a" />   <path d="M 0,204.91611448469138 C 12.600000000000003,176.4329906705326 37.8,37.17059941712886 63,62.500495413897454 C 88.2,87.83039141066604 100.79999999999997,282.31503083736516 126,331.5655944685343 C 151.2,380.8161580997035 163.8,319.2252644397381 189,308.75331356974334 C 214.2,298.28136269974857 226.8,321.9047917019043 252,279.2058401185605 C 277.2,236.50688853521675 289.8,109.45396469063911 315,95.25855565302453 C 340.2,81.06314661540995 352.79999999999995,150.95200509825628 378,208.22879493048765 C 403.2,265.505584762719 415.8,386.18634273621893 441,381.6425048141815 C 466.2,377.0986668921441 478.8,224.09160209770306 504,185.50960532030058 C 529.2,146.9276085428981 541.8,175.69056106941449 567,188.73252092716905 C 592.2,201.7744807849236 604.8,261.47462548264775 630,250.7194046090734 C 655.2,239.96418373549906 667.8,137.89126707835976 693,134.95641655929734 C 718.2,132.02156604023492 730.8000000000001,194.16307199134184 756,236.04515201376125 C 781.2,277.92723203618067 793.8,321.4796575440558 819,344.3668166713944 C 844.2,367.25397579873305 856.8,389.4927143240536 882,350.4809476504545 C 907.2,311.46918097685534 919.8,200.34219392808185 945,149.30798330339866 C 970.2,98.27377267871547 995.4,106.10951228231056 1008,95.30989452703854" fill="none" stroke="#d51212" stroke-width="4px" />   <g>   		<circle cx="0" cy="204.91611448469138" r="8" fill="#d51212" />,		<circle cx="63" cy="62.500495413897454" r="8" fill="#d51212" />,		<circle cx="126" cy="331.5655944685343" r="8" fill="#d51212" />,		<circle cx="189" cy="308.75331356974334" r="8" fill="#d51212" />,		<circle cx="252" cy="279.2058401185605" r="8" fill="#d51212" />,		<circle cx="315" cy="95.25855565302453" r="8" fill="#d51212" />,		<circle cx="378" cy="208.22879493048765" r="8" fill="#d51212" />,		<circle cx="441" cy="381.6425048141815" r="8" fill="#d51212" />,		<circle cx="504" cy="185.50960532030058" r="8" fill="#d51212" />,		<circle cx="567" cy="188.73252092716905" r="8" fill="#d51212" />,		<circle cx="630" cy="250.7194046090734" r="8" fill="#d51212" />,		<circle cx="693" cy="134.95641655929734" r="8" fill="#d51212" />,		<circle cx="756" cy="236.04515201376125" r="8" fill="#d51212" />,		<circle cx="819" cy="344.3668166713944" r="8" fill="#d51212" />,		<circle cx="882" cy="350.4809476504545" r="8" fill="#d51212" />,		<circle cx="945" cy="149.30798330339866" r="8" fill="#d51212" />,		<circle cx="1008" cy="95.30989452703854" r="8" fill="#d51212" />   </g> </svg>