<svg   id="chart"   width="1000"   height="500"   viewBox="0 0 1000 500"   xmlns="http://www.w3.org/2000/svg" >      <path d="M 0,499.4394690433259 C 12.6,494.6786233744288 37.8,484.29825110793365 63,475.63524069884045 C 88.2,466.97223028974724 100.8,463.5959419145689 126,456.1244169978598 C 151.20000000000002,448.65289208115064 163.8,452.4481847653916 189,438.2776161152947 C 214.2,424.10704746519775 226.8,395.9417682267894 252,385.27157374737516 C 277.2,374.6013792679609 289.8,396.90898784019237 315,384.92664371822343 C 340.2,372.9442995962545 352.8,326.95972389702087 378,325.3598531375306 C 403.2,323.7599823780403 415.8,369.65825818386105 441,376.927289920772 C 466.2,384.196321657683 478.8,380.0634289670155 504,361.7050118220855 C 529.2,343.3465946771555 541.8,294.9894621115062 567,285.135204196122 C 592.2,275.2809462807378 604.8,314.85713409632376 630,312.43372224516435 C 655.2,310.01031039400493 667.8,288.62040879584555 693,273.01814494032504 C 718.2,257.41588108480454 730.8,254.95323327214157 756,234.42240296756177 C 781.2,213.89157266298196 793.8,162.4075302724622 819,170.36399341742606 C 844.2,178.32045656238995 856.8,284.7592679986891 882,274.20471869238116 C 907.2,263.65016938607323 919.8,152.87465375552063 945,117.59124688588628 C 970.2,82.30784001625196 995.4,101.74839685254489 1008,97.78768434420954,L 1000 500,L 0 500Z" fill="#d512121a" />   <path d="M 0,499.4394690433259 C 12.6,494.6786233744288 37.8,484.29825110793365 63,475.63524069884045 C 88.2,466.97223028974724 100.8,463.5959419145689 126,456.1244169978598 C 151.20000000000002,448.65289208115064 163.8,452.4481847653916 189,438.2776161152947 C 214.2,424.10704746519775 226.8,395.9417682267894 252,385.27157374737516 C 277.2,374.6013792679609 289.8,396.90898784019237 315,384.92664371822343 C 340.2,372.9442995962545 352.8,326.95972389702087 378,325.3598531375306 C 403.2,323.7599823780403 415.8,369.65825818386105 441,376.927289920772 C 466.2,384.196321657683 478.8,380.0634289670155 504,361.7050118220855 C 529.2,343.3465946771555 541.8,294.9894621115062 567,285.135204196122 C 592.2,275.2809462807378 604.8,314.85713409632376 630,312.43372224516435 C 655.2,310.01031039400493 667.8,288.62040879584555 693,273.01814494032504 C 718.2,257.41588108480454 730.8,254.95323327214157 756,234.42240296756177 C 781.2,213.89157266298196 793.8,162.4075302724622 819,170.36399341742606 C 844.2,178.32045656238995 856.8,284.7592679986891 882,274.20471869238116 C 907.2,263.65016938607323 919.8,152.87465375552063 945,117.59124688588628 C 970.2,82.30784001625196 995.4,101.74839685254489 1008,97.78768434420954" fill="none" stroke="#d51212" stroke-width="4px" />   <g>   		<circle cx="0" cy="499.4394690433259" r="8" fill="#d51212" />,		<circle cx="63" cy="475.63524069884045" r="8" fill="#d51212" />,		<circle cx="126" cy="456.1244169978598" r="8" fill="#d51212" />,		<circle cx="189" cy="438.2776161152947" r="8" fill="#d51212" />,		<circle cx="252" cy="385.27157374737516" r="8" fill="#d51212" />,		<circle cx="315" cy="384.92664371822343" r="8" fill="#d51212" />,		<circle cx="378" cy="325.3598531375306" r="8" fill="#d51212" />,		<circle cx="441" cy="376.927289920772" r="8" fill="#d51212" />,		<circle cx="504" cy="361.7050118220855" r="8" fill="#d51212" />,		<circle cx="567" cy="285.135204196122" r="8" fill="#d51212" />,		<circle cx="630" cy="312.43372224516435" r="8" fill="#d51212" />,		<circle cx="693" cy="273.01814494032504" r="8" fill="#d51212" />,		<circle cx="756" cy="234.42240296756177" r="8" fill="#d51212" />,		<circle cx="819" cy="170.36399341742606" r="8" fill="#d51212" />,		<circle cx="882" cy="274.20471869238116" r="8" fill="#d51212" />,		<circle cx="945" cy="117.59124688588628" r="8" fill="#d51212" />,		<circle cx="1008" cy="97.78768434420954" r="8" fill="#d51212" />   </g> </svg>