<svg   id="chart"   width="1000"   height="500"   viewBox="0 0 1000 500"   xmlns="http://www.w3.org/2000/svg" >      <path d="M 0,5.711925498822685 C 6.3999999999999995,6.368922337746965 19.199999999999996,6.056278891132613 32,8.996909693444083 C 44.8,11.937540495755558 51.2,13.091431311494713 64,20.415079510380057 C 76.8,27.7387277092654 83.2,39.28051903560516 96,45.6151506878708 C 108.8,51.94978234013645 115.2,47.290193059698026 128,52.088237771708286 C 140.8,56.88628248371855 147.2,69.26586846815108 160,69.60537424792213 C 172.8,69.94488002769319 179.2,53.885952969646375 192,53.78576667056355 C 204.8,53.68558037148072 211.2,63.87635728101978 224,69.10444275250799 C 236.8,74.3325282239962 243.2,73.77722981952878 256,79.92619402800463 C 268.8,86.07515823648048 275.2,99.24682877369449 288,99.84926379488724 C 300.8,100.45169881607998 307.2,81.14425347556146 320,82.93836913396834 C 332.8,84.73248479237522 339.2,99.01420060333967 352,108.81984208692162 C 364.8,118.62548357050358 371.2,125.08640937280427 384,131.9665765518781 C 396.8,138.8467437309519 403.2,139.86474524020667 416,143.22067798229074 C 428.8,146.5766107243748 435.2,132.0370858295477 448,148.74624026229844 C 460.8,165.4553946950492 467.2,216.6488090248679 480,226.7664501460445 C 492.8,236.8840912672211 499.2,213.8555302655816 512,199.3344458681815 C 524.8,184.8133614707814 531.2,164.70868061173007 544,154.16102815904406 C 556.8,143.61337570635808 563.2,133.26745987469332 576,146.59618360475153 C 588.8,159.92490733480975 595.2,214.22462813082774 608,220.80464680933517 C 620.8,227.3846654878426 627.2,180.04824379052909 640,179.4962769972887 C 652.8,178.94431020404832 659.2,212.89196587078294 672,218.04481284313331 C 684.8,223.1976598154837 691.2,198.35833891025226 704,205.2605118590406 C 716.8,212.16268480782895 723.2,231.22949665717218 736,252.55567758707502 C 748.8,273.88185851697784 755.2,304.22413812589616 768,311.8914165085548 C 780.8,319.55869489121346 787.2,304.609920443994 800,290.8920695003682 C 812.8,277.17421855674246 819.2,231.71429656681877 832,243.30216179042594 C 844.8,254.8900270140331 851.2,314.16755818187954 864,348.83139561840403 C 876.8,383.4952330549285 883.2,437.7203641473956 896,416.62134897304844 C 908.8,395.52233379870125 915.2,277.5529969596071 928,243.33631974666815 C 940.8,209.11964253372918 947.2,210.63351853516622 960,245.53796290835353 C 972.8,280.44240728154085 985.6,383.39442587175444 992,417.85854161260465,L 1000 500,L 0 500Z" fill="#d512121a" />   <path d="M 0,5.711925498822685 C 6.3999999999999995,6.368922337746965 19.199999999999996,6.056278891132613 32,8.996909693444083 C 44.8,11.937540495755558 51.2,13.091431311494713 64,20.415079510380057 C 76.8,27.7387277092654 83.2,39.28051903560516 96,45.6151506878708 C 108.8,51.94978234013645 115.2,47.290193059698026 128,52.088237771708286 C 140.8,56.88628248371855 147.2,69.26586846815108 160,69.60537424792213 C 172.8,69.94488002769319 179.2,53.885952969646375 192,53.78576667056355 C 204.8,53.68558037148072 211.2,63.87635728101978 224,69.10444275250799 C 236.8,74.3325282239962 243.2,73.77722981952878 256,79.92619402800463 C 268.8,86.07515823648048 275.2,99.24682877369449 288,99.84926379488724 C 300.8,100.45169881607998 307.2,81.14425347556146 320,82.93836913396834 C 332.8,84.73248479237522 339.2,99.01420060333967 352,108.81984208692162 C 364.8,118.62548357050358 371.2,125.08640937280427 384,131.9665765518781 C 396.8,138.8467437309519 403.2,139.86474524020667 416,143.22067798229074 C 428.8,146.5766107243748 435.2,132.0370858295477 448,148.74624026229844 C 460.8,165.4553946950492 467.2,216.6488090248679 480,226.7664501460445 C 492.8,236.8840912672211 499.2,213.8555302655816 512,199.3344458681815 C 524.8,184.8133614707814 531.2,164.70868061173007 544,154.16102815904406 C 556.8,143.61337570635808 563.2,133.26745987469332 576,146.59618360475153 C 588.8,159.92490733480975 595.2,214.22462813082774 608,220.80464680933517 C 620.8,227.3846654878426 627.2,180.04824379052909 640,179.4962769972887 C 652.8,178.94431020404832 659.2,212.89196587078294 672,218.04481284313331 C 684.8,223.1976598154837 691.2,198.35833891025226 704,205.2605118590406 C 716.8,212.16268480782895 723.2,231.22949665717218 736,252.55567758707502 C 748.8,273.88185851697784 755.2,304.22413812589616 768,311.8914165085548 C 780.8,319.55869489121346 787.2,304.609920443994 800,290.8920695003682 C 812.8,277.17421855674246 819.2,231.71429656681877 832,243.30216179042594 C 844.8,254.8900270140331 851.2,314.16755818187954 864,348.83139561840403 C 876.8,383.4952330549285 883.2,437.7203641473956 896,416.62134897304844 C 908.8,395.52233379870125 915.2,277.5529969596071 928,243.33631974666815 C 940.8,209.11964253372918 947.2,210.63351853516622 960,245.53796290835353 C 972.8,280.44240728154085 985.6,383.39442587175444 992,417.85854161260465" fill="none" stroke="#d51212" stroke-width="4px" />   <g>   		<circle cx="0" cy="5.711925498822685" r="8" fill="#d51212" />,		<circle cx="32" cy="8.996909693444083" r="8" fill="#d51212" />,		<circle cx="64" cy="20.415079510380057" r="8" fill="#d51212" />,		<circle cx="96" cy="45.6151506878708" r="8" fill="#d51212" />,		<circle cx="128" cy="52.088237771708286" r="8" fill="#d51212" />,		<circle cx="160" cy="69.60537424792213" r="8" fill="#d51212" />,		<circle cx="192" cy="53.78576667056355" r="8" fill="#d51212" />,		<circle cx="224" cy="69.10444275250799" r="8" fill="#d51212" />,		<circle cx="256" cy="79.92619402800463" r="8" fill="#d51212" />,		<circle cx="288" cy="99.84926379488724" r="8" fill="#d51212" />,		<circle cx="320" cy="82.93836913396834" r="8" fill="#d51212" />,		<circle cx="352" cy="108.81984208692162" r="8" fill="#d51212" />,		<circle cx="384" cy="131.9665765518781" r="8" fill="#d51212" />,		<circle cx="416" cy="143.22067798229074" r="8" fill="#d51212" />,		<circle cx="448" cy="148.74624026229844" r="8" fill="#d51212" />,		<circle cx="480" cy="226.7664501460445" r="8" fill="#d51212" />,		<circle cx="512" cy="199.3344458681815" r="8" fill="#d51212" />,		<circle cx="544" cy="154.16102815904406" r="8" fill="#d51212" />,		<circle cx="576" cy="146.59618360475153" r="8" fill="#d51212" />,		<circle cx="608" cy="220.80464680933517" r="8" fill="#d51212" />,		<circle cx="640" cy="179.4962769972887" r="8" fill="#d51212" />,		<circle cx="672" cy="218.04481284313331" r="8" fill="#d51212" />,		<circle cx="704" cy="205.2605118590406" r="8" fill="#d51212" />,		<circle cx="736" cy="252.55567758707502" r="8" fill="#d51212" />,		<circle cx="768" cy="311.8914165085548" r="8" fill="#d51212" />,		<circle cx="800" cy="290.8920695003682" r="8" fill="#d51212" />,		<circle cx="832" cy="243.30216179042594" r="8" fill="#d51212" />,		<circle cx="864" cy="348.83139561840403" r="8" fill="#d51212" />,		<circle cx="896" cy="416.62134897304844" r="8" fill="#d51212" />,		<circle cx="928" cy="243.33631974666815" r="8" fill="#d51212" />,		<circle cx="960" cy="245.53796290835353" r="8" fill="#d51212" />,		<circle cx="992" cy="417.85854161260465" r="8" fill="#d51212" />   </g> </svg>