<svg   id="chart"   width="1000"   height="500"   viewBox="0 0 1000 500"   xmlns="http://www.w3.org/2000/svg" >      <path d="M 0,493.47663058804375 C 11.8,491.2126671556885 35.4,490.03879861352596 59,482.15681342626743 C 82.6,474.2748282390089 94.4,467.03106884895254 118,454.0667046517512 C 141.6,441.10234045454985 153.4,429.2913834837079 177,417.3349924402607 C 200.6,405.3786013968135 212.4,398.5505929396377 236,394.2847494345152 C 259.6,390.01890592939276 271.4,401.5091406367334 295,396.00577491464844 C 318.6,390.5024091925635 330.4,384.31620778287567 354,366.76792082409054 C 377.6,349.2196338653054 389.4,311.93458966826785 413,308.26434012072286 C 436.6,304.59409057317794 448.4,341.97146229819714 472,348.4166730863658 C 495.6,354.86188387453444 507.4,348.41735545541144 531,340.4903940615662 C 554.6,332.5634326677209 566.4,317.32835484702343 590,308.78186611713954 C 613.6,300.23537738725565 625.4,308.2927477730578 649,297.75795041214684 C 672.6,287.2231530512359 684.4,273.8684487507936 708,256.1078793125848 C 731.6,238.34730987437607 743.4,235.70817311739603 767,208.95510322110306 C 790.6,182.2020333248101 802.4,132.53370525279445 826,122.34252983111998 C 849.6,112.1513544094455 861.4,133.65243411152932 885,157.9992261127307 C 908.6,182.34601811393208 920.4,241.0821609288848 944,244.07648983712693 C 967.6,247.07081874536905 991.2,187.19199449057845 1003,172.97087065394135,L 1000 500,L 0 500Z" fill="#d512121a" />   <path d="M 0,493.47663058804375 C 11.8,491.2126671556885 35.4,490.03879861352596 59,482.15681342626743 C 82.6,474.2748282390089 94.4,467.03106884895254 118,454.0667046517512 C 141.6,441.10234045454985 153.4,429.2913834837079 177,417.3349924402607 C 200.6,405.3786013968135 212.4,398.5505929396377 236,394.2847494345152 C 259.6,390.01890592939276 271.4,401.5091406367334 295,396.00577491464844 C 318.6,390.5024091925635 330.4,384.31620778287567 354,366.76792082409054 C 377.6,349.2196338653054 389.4,311.93458966826785 413,308.26434012072286 C 436.6,304.59409057317794 448.4,341.97146229819714 472,348.4166730863658 C 495.6,354.86188387453444 507.4,348.41735545541144 531,340.4903940615662 C 554.6,332.5634326677209 566.4,317.32835484702343 590,308.78186611713954 C 613.6,300.23537738725565 625.4,308.2927477730578 649,297.75795041214684 C 672.6,287.2231530512359 684.4,273.8684487507936 708,256.1078793125848 C 731.6,238.34730987437607 743.4,235.70817311739603 767,208.95510322110306 C 790.6,182.2020333248101 802.4,132.53370525279445 826,122.34252983111998 C 849.6,112.1513544094455 861.4,133.65243411152932 885,157.9992261127307 C 908.6,182.34601811393208 920.4,241.0821609288848 944,244.07648983712693 C 967.6,247.07081874536905 991.2,187.19199449057845 1003,172.97087065394135" fill="none" stroke="#d51212" stroke-width="4px" />   <g>   		<circle cx="0" cy="493.47663058804375" r="8" fill="#d51212" />,		<circle cx="59" cy="482.15681342626743" r="8" fill="#d51212" />,		<circle cx="118" cy="454.0667046517512" r="8" fill="#d51212" />,		<circle cx="177" cy="417.3349924402607" r="8" fill="#d51212" />,		<circle cx="236" cy="394.2847494345152" r="8" fill="#d51212" />,		<circle cx="295" cy="396.00577491464844" r="8" fill="#d51212" />,		<circle cx="354" cy="366.76792082409054" r="8" fill="#d51212" />,		<circle cx="413" cy="308.26434012072286" r="8" fill="#d51212" />,		<circle cx="472" cy="348.4166730863658" r="8" fill="#d51212" />,		<circle cx="531" cy="340.4903940615662" r="8" fill="#d51212" />,		<circle cx="590" cy="308.78186611713954" r="8" fill="#d51212" />,		<circle cx="649" cy="297.75795041214684" r="8" fill="#d51212" />,		<circle cx="708" cy="256.1078793125848" r="8" fill="#d51212" />,		<circle cx="767" cy="208.95510322110306" r="8" fill="#d51212" />,		<circle cx="826" cy="122.34252983111998" r="8" fill="#d51212" />,		<circle cx="885" cy="157.9992261127307" r="8" fill="#d51212" />,		<circle cx="944" cy="244.07648983712693" r="8" fill="#d51212" />,		<circle cx="1003" cy="172.97087065394135" r="8" fill="#d51212" />   </g> </svg>